{"title":"13 Assassins (2010) 720p MKV x264 AC3 (Eng Sub) [Pioneer]","uid":8212204,"size":1306924714,"categoryP":"video","categoryS":"hd___movies","magnet":"?xt=urn:btih:72d124a672c135bc1127a61d39a41399c9236835&amp;dn=13+Assassins+%282010%29+720p+MKV+x264+AC3+%28Eng+Sub%29+%5BPioneer%5D&amp;tr=udp%3A%2F%2Ftracker.openbittorrent.com%3A80&amp;tr=udp%3A%2F%2Fopen.demonii.com%3A1337&amp;tr=udp%3A%2F%2Ftracker.coppersurfer.tk%3A6969&amp;tr=udp%3A%2F%2Fexodus.desync.com%3A6969","seeders":8,"leechers":2,"uploader":"Pioneer47","files":-1,"time":1362262013,"description":"Cult director Takeshi Miike (Ichi the Killer, Audition) delivers a bravado period action film set at the end of Japan's feudal era in which a group of unemployed samurai are enlisted to bring down a sadistic lord and prevent him from ascending to the throne and plunging the country into a wartorn future.\n\n\nStarring: Koji Yakusho, Takayuki Yamada, Yusuke Iseya, Goro Inagaki, Masachika Ichimura, Mikijiro Hira, Hiroki Matsukata, Ikki Sawamura, Arata Furuta\nDirector: Takashi Miike\n\n &lt;a href=&quot;\nhttp://uk.imdb.com/title/tt1436045/&quot; rel=&quot;nofollow&quot; target=&quot;_NEW&quot;&gt;\nhttp://uk.imdb.com/title/tt1436045/&lt;/a&gt;\n\n &lt;a href=&quot;\nhttp://stpicz.com/1767_vlcsnap_2013_02_04_12h47m04s162_zgmy.png&quot; rel=&quot;nofollow&quot; target=&quot;_NEW&quot;&gt;\nhttp://stpicz.com/1767_vlcsnap_2013_02_04_12h47m04s162_zgmy.png&lt;/a&gt; &lt;a href=&quot;\nhttp://stpicz.com/9594_vlcsnap_2013_02_04_12h50m51s169_ll6g.png&quot; rel=&quot;nofollow&quot; target=&quot;_NEW&quot;&gt;\nhttp://stpicz.com/9594_vlcsnap_2013_02_04_12h50m51s169_ll6g.png&lt;/a&gt; &lt;a href=&quot;\nhttp://stpicz.com/2122_vlcsnap_2013_02_04_12h48m49s251_yf49.png&quot; rel=&quot;nofollow&quot; target=&quot;_NEW&quot;&gt;\nhttp://stpicz.com/2122_vlcsnap_2013_02_04_12h48m49s251_yf49.png&lt;/a&gt; &lt;a href=&quot;\nhttp://stpicz.com/1061_vlcsnap_2013_02_04_12h48m14s158_iype.png&quot; rel=&quot;nofollow&quot; target=&quot;_NEW&quot;&gt;\nhttp://stpicz.com/1061_vlcsnap_2013_02_04_12h48m14s158_iype.png&lt;/a&gt; &lt;a href=&quot;\nhttp://stpicz.com/1382_vlcsnap_2013_02_04_22h20m08s255_j60n.png&quot; rel=&quot;nofollow&quot; target=&quot;_NEW&quot;&gt;\nhttp://stpicz.com/1382_vlcsnap_2013_02_04_22h20m08s255_j60n.png&lt;/a&gt; &lt;a href=&quot;\nhttp://stpicz.com/1910_vlcsnap_2013_02_04_22h19m35s150_ui00.png&quot; rel=&quot;nofollow&quot; target=&quot;_NEW&quot;&gt;\nhttp://stpicz.com/1910_vlcsnap_2013_02_04_22h19m35s150_ui00.png&lt;/a&gt;\n\n\n\n\nGeneral\nUnique ID: 243005198391785006836044497087712400256 (0xB6D1194C6D96BCD1BCC1D36FF5F31380)\nComplete name: D:13 Assassins (2010) 720p MKV x264 AC3 (Eng Sub) [Pioneer]\nFormat: Matroska\nFormat version: Version 4 / Version 2\nFile size: 1.22 GiB\nDuration: 2h 5mn\nOverall bit rate: 1 392 Kbps\nEncoded date: UTC 2013-02-04 12:54:13\nWriting application: mkvmerge v6.0.0 ('Coming Up For Air') built on Jan 20 2013 09:52:00\nWriting library: libebml v1.3.0 + libmatroska v1.4.0\n\nVideo\nID: 1\nFormat: AVC\nFormat/Info: Advanced Video Codec\nFormat profile: &lt;a class=&quot;__cf_email__&quot; href=&quot;/cdn-cgi/l/email-protection&quot; data-cfemail=&quot;bcf4d5dbd4fcf08f928d&quot;&gt;[email&amp;#160;protected]&lt;/a&gt;&lt;script cf-hash='f9e31' type=&quot;text/javascript&quot;&gt;\n/* &lt;![CDATA[ */!function(){try{var t=&quot;currentScript&quot;in document?document.currentScript:function(){for(var t=document.getElementsByTagName(&quot;script&quot;),e=t.length;e--;)if(t[e].getAttribute(&quot;cf-hash&quot;))return t[e]}();if(t&amp;&amp;t.previousSibling){var e,r,n,i,c=t.previousSibling,a=c.getAttribute(&quot;data-cfemail&quot;);if(a){for(e=&quot;&quot;,r=parseInt(a.substr(0,2),16),n=2;a.length-n;n+=2)i=parseInt(a.substr(n,2),16)^r,e+=String.fromCharCode(i);e=document.createTextNode(e),c.parentNode.replaceChild(e,c)}}}catch(u){}}();/* ]]&gt; */&lt;/script&gt;\nFormat settings, CABAC: Yes\nFormat settings, ReFrames: 4 frames\nCodec ID: V_MPEG4/ISO/AVC\nDuration: 2h 5mn\nBit rate: 1 200 Kbps\nWidth: 1 280 pixels\nHeight: 528 pixels\nDisplay aspect ratio: 2.40:1\nOriginal display aspect ratio: 2.40:1\nFrame rate mode: Constant\nFrame rate: 23.976 fps\nColor space: YUV\nChroma subsampling: 4:2:0\nBit depth: 8 bits\nScan type: Progressive\nBits/(Pixel*Frame): 0.074\nStream size: 1.03 GiB (84%)\nWriting library: x264 core 120\nLanguage: English\nDefault: Yes\nForced: No\nColor primaries: BT.709\nTransfer characteristics: BT.709\nMatrix coefficients: BT.709\n\nAudio\nID: 2\nFormat: AC-3\nFormat/Info: Audio Coding 3\nMode extension: CM (complete main)\nFormat settings, Endianness: Big\nCodec ID: A_AC3\nDuration: 2h 5mn\nBit rate mode: Constant\nBit rate: 192 Kbps\nChannel(s): 6 channels\nChannel positions: Front: L C R, Side: L R, LFE\nSampling rate: 48.0 KHz\nBit depth: 16 bits\nCompression mode: Lossy\nStream size: 172 MiB (14%)\nLanguage: Japanese\nDefault: Yes\nForced: No\n\nText\nID: 3\nFormat: UTF-8\nCodec ID: S_TEXT/UTF8\nCodec ID/Info: UTF-8 Plain Text\nLanguage: English\nDefault: Yes\nForced: No","torrent":{"xt":"urn:btih:72d124a672c135bc1127a61d39a41399c9236835","amp;dn":"13+Assassins+%282010%29+720p+MKV+x264+AC3+%28Eng+Sub%29+%5BPioneer%5D","amp;tr":["udp%3A%2F%2Ftracker.openbittorrent.com%3A80","udp%3A%2F%2Fopen.demonii.com%3A1337","udp%3A%2F%2Ftracker.coppersurfer.tk%3A6969","udp%3A%2F%2Fexodus.desync.com%3A6969"],"infoHash":"72d124a672c135bc1127a61d39a41399c9236835","infoHashBuffer":{"type":"Buffer","data":[114,209,36,166,114,193,53,188,17,39,166,29,57,164,19,153,201,35,104,53]},"announce":[],"urlList":[]}}